<svg xmlns="http://www.w3.org/2000/svg" version="1.1" xmlns:xlink="http://www.w3.org/1999/xlink" xmlns:svgjs="http://svgjs.dev/svgjs" width="1500" height="1500" viewBox="0 0 1500 1500"><rect width="1500" height="1500" fill="#1f2937"></rect><g transform="matrix(0.6666666666666666,0,0,0.6666666666666666,249.39393939393938,470.5810347457781)"><svg viewBox="0 0 396 221" data-background-color="#1f2937" preserveAspectRatio="xMidYMid meet" height="837" width="1500" xmlns="http://www.w3.org/2000/svg" xmlns:xlink="http://www.w3.org/1999/xlink"><g id="tight-bounds" transform="matrix(1,0,0,1,0.2400000000000091,0.16593426735312278)"><svg viewBox="0 0 395.52 220.66813146529375" height="220.66813146529375" width="395.52"><g><svg viewBox="0 0 395.52 220.66813146529375" height="220.66813146529375" width="395.52"><g><svg viewBox="0 0 395.52 220.66813146529375" height="220.66813146529375" width="395.52"><g><svg viewBox="0 0 395.52 220.66813146529375" height="220.66813146529375" width="395.52"><g transform="matrix(1,0,0,1,0,132.990563068934)"><svg viewBox="0 0 395.52 87.67756839635976" height="87.67756839635976" width="395.52"><g id="textblocktransform"><svg viewBox="0 0 395.52 87.67756839635976" height="87.67756839635976" width="395.52" id="textblock"><g><svg viewBox="0 0 395.52 50.069314734088934" height="50.069314734088934" width="395.52"><g transform="matrix(1,0,0,1,0,0)"><svg width="395.52" viewBox="1.85 -35.85 286.72999999999996 36.300000000000004" height="50.069314734088934" data-palette-color="#ffffff"><g class="wordmark-text-0" data-fill-palette-color="primary" id="text-0"><path d="M1.85-33.95L1.85-33.95Q2.8-33.9 4.35-33.85 5.9-33.8 7.2-33.8L7.2-33.8Q8.5-33.8 10.4-33.83 12.3-33.85 14.23-33.88 16.15-33.9 17.55-33.9L17.55-33.9Q22.3-33.9 25.18-33.1 28.05-32.3 29.38-30.6 30.7-28.9 30.7-26.25L30.7-26.25Q30.7-23.3 28.68-21.15 26.65-19 22.9-18.45L22.9-18.45Q26.25-18.25 28.43-17.23 30.6-16.2 31.65-14.33 32.7-12.45 32.7-9.75L32.7-9.75Q32.7-6.9 31.23-4.7 29.75-2.5 26.5-1.25 23.25 0 17.85 0L17.85 0Q15.85 0 13.73 0 11.6 0 9.5 0.03 7.4 0.05 5.48 0.08 3.55 0.1 1.85 0.15L1.85 0.15Q1.85-0.85 1.93-1.78 2-2.7 2.2-3.3L2.2-3.3Q3.55-3.4 4.28-3.83 5-4.25 5.28-5.38 5.55-6.5 5.55-8.7L5.55-8.7 5.55-25.3Q5.55-27.4 5.28-28.45 5-29.5 4.28-29.93 3.55-30.35 2.15-30.5L2.15-30.5Q2-31.15 1.93-32.18 1.85-33.2 1.85-33.95ZM13.5-29.75L14.2-31.95 14.2-8.4Q14.2-6.25 14.65-5.15 15.1-4.05 15.95-3.68 16.8-3.3 17.95-3.3L17.95-3.3Q20.25-3.3 21.68-4.85 23.1-6.4 23.1-9.15L23.1-9.15Q23.1-11.1 22.55-12.38 22-13.65 20.98-14.38 19.95-15.1 18.53-15.43 17.1-15.75 15.4-15.75L15.4-15.75 12.55-15.75 12.55-19.1 15.95-19.1Q18-19.1 19.33-19.8 20.65-20.5 21.3-21.8 21.95-23.1 21.95-24.9L21.95-24.9Q21.95-26.75 21.18-28 20.4-29.25 19.18-29.85 17.95-30.45 16.45-30.45L16.45-30.45Q15.6-30.45 14.93-30.3 14.25-30.15 13.5-29.75L13.5-29.75ZM49 0.45L49 0.45Q44.8 0.45 41.92-0.98 39.05-2.4 37.6-5 36.15-7.6 36.15-11.1L36.15-11.1Q36.15-15.15 37.87-17.88 39.6-20.6 42.6-21.98 45.6-23.35 49.35-23.35L49.35-23.35Q53.65-23.35 56.52-21.85 59.4-20.35 60.85-17.75 62.3-15.15 62.3-11.75L62.3-11.75Q62.3-8 60.7-5.25 59.1-2.5 56.1-1.03 53.1 0.45 49 0.45ZM49.8-3.05L49.8-3.05Q51.85-3.05 52.9-5.15 53.95-7.25 53.95-10.35L53.95-10.35Q53.95-13.6 53.2-15.75 52.45-17.9 51.25-18.98 50.05-20.05 48.65-20.05L48.65-20.05Q46.5-20.05 45.5-17.95 44.5-15.85 44.5-12.8L44.5-12.8Q44.5-10.05 45.1-7.83 45.7-5.6 46.9-4.33 48.1-3.05 49.8-3.05ZM78.45 0.45L78.45 0.45Q74.25 0.45 71.37-0.98 68.5-2.4 67.05-5 65.6-7.6 65.6-11.1L65.6-11.1Q65.6-15.15 67.32-17.88 69.05-20.6 72.05-21.98 75.05-23.35 78.8-23.35L78.8-23.35Q83.1-23.35 85.97-21.85 88.85-20.35 90.3-17.75 91.75-15.15 91.75-11.75L91.75-11.75Q91.75-8 90.15-5.25 88.55-2.5 85.55-1.03 82.55 0.45 78.45 0.45ZM79.25-3.05L79.25-3.05Q81.3-3.05 82.35-5.15 83.4-7.25 83.4-10.35L83.4-10.35Q83.4-13.6 82.65-15.75 81.9-17.9 80.7-18.98 79.5-20.05 78.1-20.05L78.1-20.05Q75.95-20.05 74.95-17.95 73.95-15.85 73.95-12.8L73.95-12.8Q73.95-10.05 74.55-7.83 75.15-5.6 76.35-4.33 77.55-3.05 79.25-3.05ZM94.59 0.15L94.59 0.15Q94.59-0.9 94.69-1.78 94.79-2.65 94.99-3.3L94.99-3.3Q96.99-3.4 97.64-4.28 98.29-5.15 98.29-7.65L98.29-7.65 98.29-27.4Q98.29-28.55 98.02-29.3 97.74-30.05 96.94-30.43 96.14-30.8 94.59-30.9L94.59-30.9Q94.59-31.75 94.72-32.63 94.84-33.5 95.19-34.2L95.19-34.2Q97.24-34.2 99.19-34.45 101.14-34.7 102.67-35.08 104.19-35.45 104.94-35.85L104.94-35.85Q105.69-35.55 106.12-34.85 106.54-34.15 106.54-32.95L106.54-32.95 106.54-7.65Q106.54-5.25 107.04-4.33 107.54-3.4 108.94-3.3L108.94-3.3Q109.19-2.65 109.24-1.75 109.29-0.85 109.29 0.15L109.29 0.15Q108.29 0.05 106.27 0.03 104.24 0 102.14 0L102.14 0Q100.74 0 99.24 0.03 97.74 0.05 96.49 0.08 95.24 0.1 94.59 0.15ZM114.94 0.45L114.94 0.45Q113.94-1.1 112.19-3.4 110.44-5.7 108.44-8.18 106.44-10.65 104.49-12.7L104.49-12.7 104.14-11 109.94-16.1Q111.24-17.25 111.67-17.82 112.09-18.4 112.09-18.75L112.09-18.75Q112.09-19.15 111.79-19.35 111.49-19.55 110.74-19.6L110.74-19.6Q110.44-20.5 110.32-21.33 110.19-22.15 110.19-23L110.19-23Q110.89-23 112.17-22.98 113.44-22.95 114.94-22.93 116.44-22.9 117.84-22.9L117.84-22.9Q119.09-22.9 120.29-22.93 121.49-22.95 122.54-23L122.54-23Q122.54-22.05 122.42-21.23 122.29-20.4 121.99-19.6L121.99-19.6Q120.69-19.5 119.69-19.23 118.69-18.95 117.74-18.35 116.79-17.75 115.54-16.6L115.54-16.6 111.79-13.1 111.09-15.85Q113.74-13.7 115.97-11.25 118.19-8.8 120.34-5.8L120.34-5.8Q121.04-4.9 121.59-4.4 122.14-3.9 122.74-3.68 123.34-3.45 124.19-3.35L124.19-3.35Q124.19-2.5 124.07-1.63 123.94-0.75 123.59 0L123.59 0Q122.34 0 120.74 0.05 119.14 0.1 117.59 0.18 116.04 0.25 114.94 0.45ZM143.99-34.1L143.99-34.1 155.29-9Q156.44-6.65 157.09-5.43 157.74-4.2 158.31-3.8 158.89-3.4 159.59-3.3L159.59-3.3Q159.79-2.65 159.89-1.78 159.99-0.9 159.99 0.15L159.99 0.15Q159.09 0.05 157.69 0.03 156.29 0 154.89 0 153.49 0 152.69 0L152.69 0Q152.09 0 151.02 0 149.94 0 148.72 0.03 147.49 0.05 146.39 0.08 145.29 0.1 144.69 0.15L144.69 0.15Q144.69-1.05 144.79-1.85 144.89-2.65 145.09-3.3L145.09-3.3Q146.84-3.65 147.17-4.48 147.49-5.3 146.69-7.15L146.69-7.15 142.19-17.4Q141.04-20.05 140.31-22.33 139.59-24.6 139.09-26.8L139.09-26.8 140.54-26.8Q139.94-24.55 139.22-22.25 138.49-19.95 137.44-17.45L137.44-17.45 133.64-7.55Q132.99-5.95 133.39-4.75 133.79-3.55 135.49-3.3L135.49-3.3Q135.69-2.6 135.79-1.75 135.89-0.9 135.89 0.15L135.89 0.15Q135.34 0.1 134.34 0.08 133.34 0.05 132.27 0.03 131.19 0 130.34 0L130.34 0Q129.09 0 127.77 0.03 126.44 0.05 125.69 0.15L125.69 0.15Q125.69-0.85 125.79-1.65 125.89-2.45 126.14-3.3L126.14-3.3Q126.99-3.45 127.59-3.93 128.19-4.4 128.77-5.45 129.34-6.5 130.14-8.45L130.14-8.45 140.69-33.85Q141.54-34.05 142.27-34.08 142.99-34.1 143.99-34.1ZM133.44-12L145.84-12 146.74-9Q143.39-9 139.77-8.9 136.14-8.8 132.69-8.45L132.69-8.45 133.44-12ZM172.34 0.45L172.34 0.45Q168.64 0.45 166.74-1.48 164.84-3.4 164.84-8L164.84-8 164.84-18.3Q164.04-18.6 163.16-18.75 162.29-18.9 161.14-18.9L161.14-18.9Q161.14-19.9 161.26-20.73 161.39-21.55 161.79-22.4L161.79-22.4 164.84-22.4 164.84-28.35Q166.79-28.6 168.66-29.35 170.54-30.1 171.69-31L171.69-31Q172.49-30.7 172.79-30.05 173.09-29.4 173.09-27.75L173.09-27.75 173.09-22.4 179.09-22.4Q179.09-21.3 178.96-20.48 178.84-19.65 178.59-18.85L178.59-18.85Q176.99-18.85 175.61-18.63 174.24-18.4 173.09-18L173.09-18 173.09-8.75Q173.09-6.6 173.34-5.48 173.59-4.35 174.14-3.93 174.69-3.5 175.54-3.5L175.54-3.5Q176.29-3.5 177.06-3.68 177.84-3.85 178.54-4.2L178.54-4.2Q179.24-3.2 179.29-1.4L179.29-1.4Q178.24-0.6 176.31-0.08 174.39 0.45 172.34 0.45ZM181.88-33.95L181.88-33.95Q182.94-33.9 184.53-33.88 186.13-33.85 187.91-33.83 189.69-33.8 191.34-33.8 192.98-33.8 194.23-33.8L194.23-33.8 194.23-8.9Q194.23-6.75 194.59-5.53 194.94-4.3 195.81-3.83 196.69-3.35 198.28-3.35L198.28-3.35 196.69 0Q195.34 0 193.21 0.03 191.09 0.05 188.81 0.08 186.53 0.1 184.63 0.13 182.73 0.15 181.88 0.15L181.88 0.15Q181.88-0.85 181.96-1.78 182.03-2.7 182.23-3.3L182.23-3.3Q183.59-3.4 184.31-3.83 185.03-4.25 185.31-5.38 185.59-6.5 185.59-8.7L185.59-8.7 185.59-25.3Q185.59-27.4 185.31-28.45 185.03-29.5 184.31-29.93 183.59-30.35 182.19-30.5L182.19-30.5Q181.98-31.15 181.94-32.18 181.88-33.2 181.88-33.95ZM206.34-10.05L206.34-10.05Q207.74-9.9 208.91-9.47 210.09-9.05 210.69-8.45L210.69-8.45Q210.13-6.75 209.74-4.45 209.34-2.15 209.13 0.1L209.13 0.1Q207.78 0.05 205.69 0.05 203.59 0.05 201.21 0.03 198.84 0 196.69 0L196.69 0 198.28-3.35 198.98-3.35Q201.19-3.35 202.56-4.08 203.94-4.8 204.78-6.28 205.63-7.75 206.34-10.05ZM203.38-22.75L203.38-22.75Q203.34-21.55 203.26-20.15 203.19-18.75 203.19-17L203.19-17Q203.19-15.1 203.26-13.68 203.34-12.25 203.38-11.1L203.38-11.1Q202.19-11.1 201.28-11.2 200.38-11.3 199.59-11.55L199.59-11.55Q199.38-13.75 198.44-14.48 197.48-15.2 195.03-15.2L195.03-15.2 192.03-15.2 192.03-18.55 195.03-18.55Q197.69-18.55 198.56-19.35 199.44-20.15 199.49-22.2L199.49-22.2Q200.28-22.55 201.34-22.65 202.38-22.75 203.38-22.75ZM207.74-33.95L207.74-33.95Q207.78-32.75 207.94-31.15 208.09-29.55 208.28-28.03 208.49-26.5 208.78-25.3L208.78-25.3Q207.99-24.95 206.96-24.73 205.94-24.5 204.44-24.5L204.44-24.5Q204.19-26.2 203.51-27.58 202.84-28.95 201.38-29.73 199.94-30.5 197.23-30.5L197.23-30.5 192.28-30.5 193.84-33.8Q197.63-33.8 200.26-33.83 202.88-33.85 204.69-33.88 206.49-33.9 207.74-33.95ZM230.43 0.45L230.43 0.45Q229.48 0.1 229.08-0.6 228.68-1.3 228.68-2.45L228.68-2.45Q228.68-3.1 228.83-4.03 228.98-4.95 229.28-5.8L229.28-5.8 229.48-6Q229.03-4.45 228.33-3.33 227.63-2.2 226.68-1.45L226.68-1.45Q225.63-0.55 224.13-0.1 222.63 0.35 220.68 0.35L220.68 0.35Q217.23 0.35 215.28-1.1 213.33-2.55 213.33-5.35L213.33-5.35Q213.33-7.25 214.21-8.63 215.08-10 216.61-10.98 218.13-11.95 220.01-12.55 221.88-13.15 223.91-13.53 225.93-13.9 227.88-14.2L227.88-14.2Q227.88-15.4 227.81-16.3 227.73-17.2 227.51-17.88 227.28-18.55 226.78-19.05L226.78-19.05Q226.23-19.7 225.51-19.95 224.78-20.2 224.08-20.2L224.08-20.2Q222.83-20.2 222.03-19.45 221.23-18.7 220.83-17.43 220.43-16.15 220.28-14.65L220.28-14.65Q218.83-14.65 217.68-14.75 216.53-14.85 215.58-15.25L215.58-15.25Q215.68-16.65 215.63-18.2 215.58-19.75 215.23-21.45L215.23-21.45Q217.38-22.35 220.28-22.88 223.18-23.4 225.83-23.4L225.83-23.4Q229.13-23.4 231.03-22.68 232.93-21.95 233.88-21L233.88-21Q234.88-20 235.51-18.18 236.13-16.35 236.13-12.8L236.13-12.8 236.13-8.95Q236.13-7.25 236.33-6.35 236.53-5.45 237.16-5.13 237.78-4.8 238.98-4.75L238.98-4.75Q239.13-3.8 239.03-2.9 238.93-2 238.53-1.2L238.53-1.2Q236.48-1.15 234.38-0.75 232.28-0.35 230.43 0.45ZM223.63-4.4L223.63-4.4Q224.63-4.4 225.61-5.03 226.58-5.65 227.23-6.95 227.88-8.25 227.88-10.15L227.88-10.15 227.88-11.3Q226.33-11 225.11-10.6 223.88-10.2 223.08-9.7 222.28-9.2 221.88-8.5 221.48-7.8 221.48-6.85L221.48-6.85Q221.48-5.55 222.11-4.98 222.73-4.4 223.63-4.4ZM260.28-21.8L260.28-21.8Q260.23-20.5 260.25-19.13 260.28-17.75 260.48-16.45L260.48-16.45Q259.73-16.05 258.56-15.75 257.38-15.45 256.18-15.45L256.18-15.45Q256.03-16.7 255.51-17.73 254.98-18.75 254.06-19.35 253.13-19.95 251.68-19.95L251.68-19.95Q250.68-19.95 250.11-19.43 249.53-18.9 249.53-18.05L249.53-18.05Q249.53-17.45 249.86-16.9 250.18-16.35 251.31-15.68 252.43-15 254.78-14L254.78-14Q257.63-12.85 259.25-11.8 260.88-10.75 261.58-9.55 262.28-8.35 262.28-6.65L262.28-6.65Q262.28-4.4 260.96-2.8 259.63-1.2 257.18-0.38 254.73 0.45 251.28 0.45L251.28 0.45Q248.13 0.45 246.03 0 243.93-0.45 241.93-1.25L241.93-1.25Q242.08-2.25 242.13-3.38 242.18-4.5 242.16-5.58 242.13-6.65 242.03-7.45L242.03-7.45Q242.78-7.95 244.06-8.18 245.33-8.4 246.43-8.4L246.43-8.4Q246.73-5.8 247.96-4.48 249.18-3.15 250.98-3.15L250.98-3.15Q252.23-3.15 253.06-3.7 253.88-4.25 253.88-5.3L253.88-5.3Q253.88-6.05 253.51-6.63 253.13-7.2 252.16-7.78 251.18-8.35 249.28-9.05L249.28-9.05Q247.08-9.9 245.48-10.85 243.88-11.8 243.01-13.2 242.13-14.6 242.13-16.8L242.13-16.8Q242.13-18.5 242.86-19.73 243.58-20.95 244.93-21.75 246.28-22.55 248.06-22.95 249.83-23.35 251.88-23.35L251.88-23.35Q254.68-23.35 256.63-22.98 258.58-22.6 260.28-21.8ZM278.18 0.45L278.18 0.45Q273.68 0.45 270.9-1.1 268.13-2.65 266.83-5.3 265.53-7.95 265.53-11.25L265.53-11.25Q265.53-14.95 266.98-17.65 268.43-20.35 271.18-21.85 273.93-23.35 277.63-23.35L277.63-23.35Q281.33-23.35 283.73-21.98 286.13-20.6 287.3-18.18 288.48-15.75 288.58-12.55L288.58-12.55Q288.18-10.9 287.13-9.9L287.13-9.9Q285.68-9.9 283.83-9.9 281.98-9.9 279.95-9.88 277.93-9.85 275.85-9.75 273.78-9.65 271.88-9.5L271.88-9.5 271.88-13.1 281.08-13.1Q281.08-16.5 280.2-18.25 279.33-20 277.58-20L277.58-20Q276.43-20 275.55-19.18 274.68-18.35 274.23-16.73 273.78-15.1 273.78-12.7L273.78-12.7Q273.78-10.1 274.43-8.05 275.08-6 276.58-4.85 278.08-3.7 280.63-3.7L280.63-3.7Q282.38-3.7 284.13-4.3 285.88-4.9 287.03-5.85L287.03-5.85Q287.53-5.55 287.93-4.67 288.33-3.8 288.33-2.9L288.33-2.9Q286.38-1.25 283.9-0.4 281.43 0.45 278.18 0.45Z" fill="#ffffff" data-fill-palette-color="primary"></path></g></svg></g></svg></g><g transform="matrix(1,0,0,1,75.54432,61.889478279253716)"><svg viewBox="0 0 244.43135999999998 25.788090117106037" height="25.788090117106037" width="244.43135999999998"><g transform="matrix(1,0,0,1,0,0)"><svg width="244.43135999999998" viewBox="1.81 -37.5 456.51 48.17" height="25.788090117106037" data-palette-color="#ffffff"><path d="M17.87-9.33L17.87-9.33Q17.87-11.5 16.76-12.61 15.65-13.72 12.72-14.92L12.72-14.92Q7.37-16.94 5.03-19.67 2.69-22.39 2.69-26.1L2.69-26.1Q2.69-30.59 5.87-33.31 9.06-36.04 13.96-36.04L13.96-36.04Q17.24-36.04 19.8-34.66 22.36-33.28 23.74-30.76 25.12-28.25 25.12-25.05L25.12-25.05 17.97-25.05Q17.97-27.54 16.91-28.85 15.84-30.15 13.84-30.15L13.84-30.15Q11.96-30.15 10.91-29.04 9.86-27.93 9.86-26.05L9.86-26.05Q9.86-24.58 11.04-23.4 12.21-22.22 15.19-20.95L15.19-20.95Q20.39-19.07 22.74-16.33 25.1-13.6 25.1-9.38L25.1-9.38Q25.1-4.74 22.14-2.12 19.19 0.49 14.11 0.49L14.11 0.49Q10.67 0.49 7.84-0.93 5-2.34 3.41-4.98 1.81-7.62 1.81-11.21L1.81-11.21 9.01-11.21Q9.01-8.13 10.21-6.74 11.4-5.35 14.11-5.35L14.11-5.35Q17.87-5.35 17.87-9.33ZM30.64-32.91L37.55-32.91 37.55-26.42 41.09-26.42 41.09-21.22 37.55-21.22 37.55-8.11Q37.55-6.54 37.97-5.96 38.4-5.37 39.62-5.37L39.62-5.37Q40.62-5.37 41.26-5.54L41.26-5.54 41.21-0.17Q39.45 0.49 37.4 0.49L37.4 0.49Q30.71 0.49 30.64-7.18L30.64-7.18 30.64-21.22 27.59-21.22 27.59-26.42 30.64-26.42 30.64-32.91ZM57.98-26.59L57.91-19.75 55.61-19.95Q52.78-19.95 51.78-17.46L51.78-17.46 51.78 0 44.84 0 44.84-26.42 51.36-26.42 51.56-23.56Q53.19-26.9 56.07-26.9L56.07-26.9Q57.25-26.9 57.98-26.59L57.98-26.59ZM71.65 0.49L71.65 0.49Q66.33 0.49 63.35-2.69 60.37-5.86 60.37-11.77L60.37-11.77 60.37-13.87Q60.37-20.12 63.1-23.51 65.84-26.9 70.94-26.9L70.94-26.9Q75.92-26.9 78.43-23.72 80.95-20.53 81-14.28L81-14.28 81-10.89 67.25-10.89Q67.4-7.96 68.55-6.6 69.69-5.25 72.09-5.25L72.09-5.25Q75.55-5.25 77.87-7.62L77.87-7.62 80.58-3.44Q79.31-1.68 76.9-0.6 74.48 0.49 71.65 0.49ZM67.3-15.72L67.3-15.72 74.21-15.72 74.21-16.36Q74.16-18.73 73.43-19.95 72.7-21.17 70.89-21.17 69.08-21.17 68.27-19.87 67.45-18.58 67.3-15.72ZM104.41 0L97.45 0Q97.16-0.61 96.87-2.05L96.87-2.05Q95.01 0.49 91.84 0.49L91.84 0.49Q88.52 0.49 86.33-1.71 84.15-3.91 84.15-7.4L84.15-7.4Q84.15-11.55 86.79-13.82 89.44-16.09 94.42-16.14L94.42-16.14 96.52-16.14 96.52-18.26Q96.52-20.04 95.91-20.78 95.3-21.51 94.13-21.51L94.13-21.51Q91.54-21.51 91.54-18.48L91.54-18.48 84.63-18.48Q84.63-22.14 87.38-24.52 90.13-26.9 94.33-26.9L94.33-26.9Q98.67-26.9 101.05-24.65 103.43-22.39 103.43-18.19L103.43-18.19 103.43-5.76Q103.48-2.34 104.41-0.42L104.41-0.42 104.41 0ZM93.37-4.93L93.37-4.93Q94.52-4.93 95.33-5.4 96.13-5.86 96.52-6.49L96.52-6.49 96.52-11.99 94.86-11.99Q93.11-11.99 92.09-10.86 91.08-9.74 91.08-7.86L91.08-7.86Q91.08-4.93 93.37-4.93ZM108.46-26.42L114.93-26.42 115.12-23.97Q117.44-26.9 121.25-26.9L121.25-26.9Q125.21-26.9 126.84-23.34L126.84-23.34Q129.11-26.9 133.31-26.9L133.31-26.9Q140.25-26.9 140.42-17.31L140.42-17.31 140.42 0 133.51 0 133.51-16.87Q133.51-19.17 132.87-20.14 132.24-21.12 130.72-21.12L130.72-21.12Q128.8-21.12 127.84-18.75L127.84-18.75 127.89-17.92 127.89 0 120.98 0 120.98-16.82Q120.98-19.09 120.37-20.1 119.76-21.12 118.2-21.12L118.2-21.12Q116.42-21.12 115.37-19.19L115.37-19.19 115.37 0 108.46 0 108.46-26.42ZM152.77-37.5L152.77 0 145.83 0 145.83-37.5 152.77-37.5ZM165.36-26.42L165.36 0 158.43 0 158.43-26.42 165.36-26.42ZM158.11-33.25L158.11-33.25Q158.11-34.86 159.14-35.89 160.16-36.91 161.87-36.91 163.58-36.91 164.61-35.89 165.63-34.86 165.63-33.25L165.63-33.25Q165.63-31.67 164.62-30.62 163.61-29.57 161.87-29.57 160.14-29.57 159.13-30.62 158.11-31.67 158.11-33.25ZM170.54-26.42L177.03-26.42 177.23-23.8Q179.57-26.9 183.35-26.9L183.35-26.9Q190.17-26.9 190.36-17.36L190.36-17.36 190.36 0 183.43 0 183.43-16.85Q183.43-19.09 182.76-20.1 182.08-21.12 180.4-21.12L180.4-21.12Q178.52-21.12 177.47-19.19L177.47-19.19 177.47 0 170.54 0 170.54-26.42ZM205.98 0.49L205.98 0.49Q200.66 0.49 197.68-2.69 194.7-5.86 194.7-11.77L194.7-11.77 194.7-13.87Q194.7-20.12 197.44-23.51 200.17-26.9 205.28-26.9L205.28-26.9Q210.26-26.9 212.77-23.72 215.29-20.53 215.33-14.28L215.33-14.28 215.33-10.89 201.59-10.89Q201.74-7.96 202.88-6.6 204.03-5.25 206.42-5.25L206.42-5.25Q209.89-5.25 212.21-7.62L212.21-7.62 214.92-3.44Q213.65-1.68 211.23-0.6 208.82 0.49 205.98 0.49ZM201.64-15.72L201.64-15.72 208.55-15.72 208.55-16.36Q208.5-18.73 207.77-19.95 207.03-21.17 205.23-21.17 203.42-21.17 202.6-19.87 201.78-18.58 201.64-15.72ZM236.06-26.42L239.23-11.5 242.75-26.42 250.12-26.42 241.43 3.96Q239.47 10.67 234.08 10.67L234.08 10.67Q232.83 10.67 231.25 10.21L231.25 10.21 231.25 4.81 232.05 4.83Q233.66 4.83 234.48 4.21 235.3 3.59 235.71 2.05L235.71 2.05 236.25 0.27 228.63-26.42 236.06-26.42ZM251.9-12.38L251.9-14.06Q251.9-20.07 254.73-23.49 257.56-26.9 262.57-26.9L262.57-26.9Q267.62-26.9 270.45-23.49 273.29-20.07 273.29-14.01L273.29-14.01 273.29-12.33Q273.29-6.3 270.48-2.91 267.67 0.49 262.62 0.49L262.62 0.49Q257.54 0.49 254.72-2.92 251.9-6.32 251.9-12.38L251.9-12.38ZM258.83-14.06L258.83-12.33Q258.83-5.25 262.62-5.25L262.62-5.25Q266.11-5.25 266.38-11.16L266.38-11.16 266.4-14.06Q266.4-17.68 265.4-19.42 264.4-21.17 262.57-21.17L262.57-21.17Q260.81-21.17 259.82-19.42 258.83-17.68 258.83-14.06L258.83-14.06ZM290.76 0L290.57-2.42Q288.42 0.49 284.81 0.49L284.81 0.49Q281.17 0.49 279.29-2.01 277.41-4.52 277.41-9.3L277.41-9.3 277.41-26.42 284.32-26.42 284.32-9.13Q284.37-5.27 286.88-5.27L286.88-5.27Q289.25-5.27 290.3-7.32L290.3-7.32 290.3-26.42 297.26-26.42 297.26 0 290.76 0ZM315.3-26.59L315.22-19.75 312.93-19.95Q310.1-19.95 309.1-17.46L309.1-17.46 309.1 0 302.16 0 302.16-26.42 308.68-26.42 308.88-23.56Q310.51-26.9 313.39-26.9L313.39-26.9Q314.56-26.9 315.3-26.59L315.3-26.59ZM340.95 0.49L340.95 0.49Q335.63 0.49 332.65-2.69 329.67-5.86 329.67-11.77L329.67-11.77 329.67-13.87Q329.67-20.12 332.41-23.51 335.14-26.9 340.24-26.9L340.24-26.9Q345.22-26.9 347.74-23.72 350.25-20.53 350.3-14.28L350.3-14.28 350.3-10.89 336.56-10.89Q336.7-7.96 337.85-6.6 339-5.25 341.39-5.25L341.39-5.25Q344.86-5.25 347.18-7.62L347.18-7.62 349.89-3.44Q348.62-1.68 346.2-0.6 343.78 0.49 340.95 0.49ZM336.61-15.72L336.61-15.72 343.51-15.72 343.51-16.36Q343.47-18.73 342.73-19.95 342-21.17 340.19-21.17 338.39-21.17 337.57-19.87 336.75-18.58 336.61-15.72ZM359.21-26.42L362.56-9.77 365.9-26.42 373.1-26.42 365.85 0 359.26 0 351.98-26.42 359.21-26.42ZM386.7 0.49L386.7 0.49Q381.38 0.49 378.4-2.69 375.42-5.86 375.42-11.77L375.42-11.77 375.42-13.87Q375.42-20.12 378.15-23.51 380.89-26.9 385.99-26.9L385.99-26.9Q390.97-26.9 393.49-23.72 396-20.53 396.05-14.28L396.05-14.28 396.05-10.89 382.3-10.89Q382.45-7.96 383.6-6.6 384.75-5.25 387.14-5.25L387.14-5.25Q390.6-5.25 392.92-7.62L392.92-7.62 395.63-3.44Q394.36-1.68 391.95-0.6 389.53 0.49 386.7 0.49ZM382.35-15.72L382.35-15.72 389.26-15.72 389.26-16.36Q389.21-18.73 388.48-19.95 387.75-21.17 385.94-21.17 384.13-21.17 383.32-19.87 382.5-18.58 382.35-15.72ZM399.78-26.42L406.28-26.42 406.47-23.8Q408.81-26.9 412.6-26.9L412.6-26.9Q419.41-26.9 419.61-17.36L419.61-17.36 419.61 0 412.67 0 412.67-16.85Q412.67-19.09 412-20.1 411.33-21.12 409.64-21.12L409.64-21.12Q407.77-21.12 406.72-19.19L406.72-19.19 406.72 0 399.78 0 399.78-26.42ZM425.68-32.91L432.59-32.91 432.59-26.42 436.13-26.42 436.13-21.22 432.59-21.22 432.59-8.11Q432.59-6.54 433.02-5.96 433.45-5.37 434.67-5.37L434.67-5.37Q435.67-5.37 436.3-5.54L436.3-5.54 436.25-0.17Q434.5 0.49 432.45 0.49L432.45 0.49Q425.76 0.49 425.68-7.18L425.68-7.18 425.68-21.22 422.63-21.22 422.63-26.42 425.68-26.42 425.68-32.91ZM451.61-7.08L451.61-7.08Q451.61-7.96 450.77-8.7 449.92-9.45 447.02-10.72L447.02-10.72Q442.75-12.45 441.15-14.31 439.55-16.16 439.55-18.92L439.55-18.92Q439.55-22.39 442.05-24.65 444.55-26.9 448.68-26.9L448.68-26.9Q453.02-26.9 455.64-24.66 458.25-22.41 458.25-18.63L458.25-18.63 451.34-18.63Q451.34-21.85 448.65-21.85L448.65-21.85Q447.55-21.85 446.85-21.17 446.14-20.48 446.14-19.26L446.14-19.26Q446.14-18.38 446.92-17.71 447.7-17.04 450.61-15.8L450.61-15.8Q454.83-14.23 456.58-12.32 458.32-10.4 458.32-7.35L458.32-7.35Q458.32-3.81 455.66-1.66 453 0.49 448.68 0.49L448.68 0.49Q445.77 0.49 443.55-0.65 441.33-1.78 440.07-3.81 438.81-5.83 438.81-8.18L438.81-8.18 445.38-8.18Q445.43-6.37 446.22-5.47 447.02-4.57 448.82-4.57L448.82-4.57Q451.61-4.57 451.61-7.08Z" opacity="1" transform="matrix(1,0,0,1,0,0)" fill="#ffffff" class="slogan-text-1" data-fill-palette-color="secondary" id="text-1"></path></svg></g></svg></g></svg></g></svg></g><g transform="matrix(1,0,0,1,137.17480023811538,0)"><svg viewBox="0 0 121.1703995237692 121.1703995237692" height="121.1703995237692" width="121.1703995237692"><g><svg xmlns="http://www.w3.org/2000/svg" xmlns:xlink="http://www.w3.org/1999/xlink" version="1.1" x="0" y="0" viewBox="2 2 60 60" style="enable-background:new 0 0 64 64;" xml:space="preserve" height="121.1703995237692" width="121.1703995237692" class="icon-icon-0" data-fill-palette-color="accent" id="icon-0"><path d="M58 30C58 14.561 45.439 2 30 2S2 14.561 2 30v12c0 0.553 0.448 1 1 1h8v11c0 0.553 0.448 1 1 1h16v5h-3v2h37v-2h-4V30zM29 53H13v-3h4c2.757 0 5-2.243 5-5h-2c0 1.654-1.346 3-3 3h-4v-5h2v-2H4V30C4 15.663 15.664 4 30 4s26 11.663 26 26v30H30v-6C30 53.447 29.552 53 29 53z" fill="#ffffff" data-fill-palette-color="accent"></path><path d="M26.5 18.5c-2.757 0-5 2.243-5 5s2.243 5 5 5 5-2.243 5-5S29.257 18.5 26.5 18.5zM26.5 26.5c-1.654 0-3-1.346-3-3s1.346-3 3-3 3 1.346 3 3S28.154 26.5 26.5 26.5z" fill="#ffffff" data-fill-palette-color="accent"></path><rect x="42" y="46" width="2" height="2" fill="#ffffff" data-fill-palette-color="accent"></rect><path d="M34.966 54.5l0.883 0.849C37.844 57.059 40.383 58 43 58c6.065 0 11-4.935 11-11 0-1.744-0.399-3.409-1.187-4.95-0.012-0.027-0.03-0.067-0.03-0.068L42.032 17.93l-1.015-2.251c-0.019-0.056-0.043-0.11-0.072-0.163C38.038 10.263 32.503 7 26.5 7 17.402 7 10 14.402 10 23.5c0 4.604 1.94 9.028 5.345 12.156L34.89 54.424C34.896 54.43 34.961 54.495 34.966 54.5zM16.677 34.164C13.705 31.434 12 27.546 12 23.5 12 15.505 18.505 9 26.5 9c5.252 0 10.096 2.842 12.66 7.422 0.003 0.007 0.006 0.014 0.008 0.019l11.787 26.353 0.04 0.091c0.008 0.019 0.017 0.036 0.026 0.055C51.67 44.2 52 45.566 52 47c0 4.963-4.038 9-9 9-2.14 0-4.217-0.771-5.806-2.13l-0.824-0.794c-0.006-0.006-0.071-0.072-0.077-0.077L16.735 34.214 16.677 34.164z" fill="#ffffff" data-fill-palette-color="accent"></path><path d="M37.107 29.863l-1.746-1.746c0.271-0.513 0.495-1.054 0.672-1.617H38.5c0.552 0 1-0.447 1-1v-4c0-0.553-0.448-1-1-1h-2.466c-0.177-0.563-0.402-1.104-0.672-1.617l1.746-1.746c0.391-0.391 0.391-1.023 0-1.414l-2.83-2.83c-0.375-0.375-1.039-0.375-1.414 0l-1.746 1.746c-0.513-0.271-1.054-0.495-1.617-0.673V11.5c0-0.553-0.448-1-1-1h-4c-0.552 0-1 0.447-1 1v2.466c-0.563 0.178-1.104 0.402-1.617 0.673l-1.746-1.746C19.95 12.705 19.695 12.6 19.43 12.6s-0.52 0.105-0.707 0.293l-2.83 2.83c-0.391 0.391-0.391 1.023 0 1.414l1.746 1.746c-0.271 0.513-0.495 1.054-0.672 1.617H14.5c-0.552 0-1 0.447-1 1v4c0 0.553 0.448 1 1 1h2.466c0.177 0.563 0.402 1.104 0.672 1.617l-1.746 1.746c-0.391 0.391-0.391 1.023 0 1.414l2.83 2.83c0.375 0.375 1.039 0.375 1.414 0l1.746-1.746c0.513 0.271 1.054 0.495 1.617 0.673V35.5c0 0.553 0.448 1 1 1h4c0.552 0 1-0.447 1-1v-2.466c0.563-0.178 1.104-0.402 1.617-0.673l1.746 1.746c0.188 0.188 0.442 0.293 0.707 0.293s0.52-0.105 0.707-0.293l2.83-2.83C37.498 30.887 37.498 30.254 37.107 29.863zM33.403 28.987l1.583 1.583-1.416 1.416-1.583-1.583c-0.332-0.333-0.851-0.389-1.248-0.134-0.74 0.475-1.568 0.82-2.463 1.025-0.455 0.104-0.776 0.509-0.776 0.975v2.23h-2v-2.23c0-0.466-0.322-0.87-0.776-0.975C23.829 31.09 23 30.744 22.26 30.27c-0.396-0.256-0.916-0.199-1.248 0.134l-1.583 1.583-1.416-1.416 1.583-1.583c0.333-0.333 0.389-0.853 0.134-1.248-0.476-0.739-0.821-1.568-1.027-2.464C18.6 24.822 18.196 24.5 17.73 24.5H15.5v-2h2.23c0.466 0 0.87-0.322 0.975-0.775 0.206-0.896 0.551-1.725 1.027-2.464 0.254-0.396 0.198-0.915-0.134-1.248l-1.583-1.583 1.416-1.416 1.583 1.583c0.333 0.334 0.852 0.391 1.248 0.134 0.74-0.475 1.568-0.82 2.463-1.025 0.455-0.104 0.776-0.509 0.776-0.975V12.5h2v2.23c0 0.466 0.322 0.87 0.776 0.975C29.171 15.91 30 16.256 30.74 16.73c0.396 0.257 0.915 0.2 1.248-0.134l1.583-1.583 1.416 1.416-1.583 1.583c-0.333 0.333-0.389 0.853-0.134 1.248 0.476 0.739 0.821 1.568 1.027 2.464C34.4 22.178 34.804 22.5 35.27 22.5h2.23v2h-2.23c-0.466 0-0.87 0.322-0.975 0.775-0.206 0.896-0.551 1.725-1.027 2.464C33.014 28.135 33.07 28.654 33.403 28.987z" fill="#ffffff" data-fill-palette-color="accent"></path><path d="M38.112 50.474l-1.476 1.476 1.414 1.414 1.475-1.476c0.74 0.525 1.582 0.873 2.475 1.023V55h2v-2.089c0.893-0.149 1.734-0.497 2.475-1.023l1.475 1.476 1.414-1.414-1.475-1.476c0.525-0.741 0.873-1.582 1.022-2.475H51v-2h-2.089c-0.149-0.891-0.497-1.732-1.023-2.474l1.476-1.476-1.414-1.414-1.475 1.476c-0.74-0.525-1.582-0.873-2.475-1.023V39h-2v2.089c-0.891 0.149-1.732 0.497-2.474 1.023l-1.475-1.476-1.414 1.414 1.475 1.476c-0.525 0.741-0.873 1.582-1.022 2.475H35v2h2.089C37.238 48.891 37.585 49.732 38.112 50.474zM40.163 44.171C40.926 43.416 41.934 43 43 43s2.074 0.416 2.829 1.163C46.584 44.927 47 45.935 47 47c0 1.063-0.414 2.069-1.167 2.832-0.006 0.006-0.014 0.01-0.02 0.016-1.529 1.49-4.138 1.477-5.642-0.011C39.416 49.073 39 48.065 39 47S39.416 44.927 40.163 44.171z" fill="#ffffff" data-fill-palette-color="accent"></path></svg></g></svg></g><g></g></svg></g></svg></g></svg></g><defs></defs></svg><rect width="395.52" height="220.66813146529375" fill="none" stroke="none" visibility="hidden"></rect></g></svg></g></svg>